<svg xmlns="http://www.w3.org/2000/svg" width="100" height="100"><path d="M50.014 34.87C27.904 34.87 10 41.654 10 50.013c0 8.358 17.905 15.117 40.014 15.117C72.097 65.13 90 58.372 90 50.014c0-8.359-17.903-15.145-39.986-15.145zm0 1.52c21.257 0 38.465 6.116 38.465 13.624 0 7.533-17.208 13.57-38.465 13.57-21.206 0-38.44-6.037-38.44-13.57 0-7.508 17.234-13.623 38.44-13.623zm0 1.135c-20.587 0-37.229 5.6-37.229 12.489 0 6.914 16.642 12.511 37.229 12.511 20.56 0 37.252-5.597 37.252-12.511 0-6.888-16.691-12.489-37.252-12.489zm-8.797 2.452c1.212 0 2.58.103 4.076.36 1.728.31 6.036 1.034 9.545 1.085 1.29 0 2.94.052 4.281-.154 1.419-.233 1.11-.284 1.678-.284.516 0 .516.206.516.412 0 .826-2.89 2.399-5.34 2.399-3.636 0-7.391-1.647-9.325-2.162.085.068.153.17.088.332a2.762 2.762 0 0 1-.386.412c-.516.464-2.27 1.6-4.18 4.824 1.548-.077 3.353-.387 3.353-.387s-.101-.335-.101-.619c.077-1.109.721-1.781 1.547-1.652a.905.905 0 0 1 .773.877c0 .439-.334 1.085-.67 1.394-.232.18-.491.361-.8.516 0 .284.387.515.722.541-.077.284-.05.414-.18.389-.774 0-1.084-.75-1.084-.75-1.031.18-2.037.31-4.076.517-5.134 8.307-6.733 9.674-9.88 9.674-2.245 0-4.23-1.47-4.282-4.101-.026-1.6 1.263-3.561 3.662-4.155.284 0 .387.103.387.258 0 .103-.102.233-.334.336-.697.258-1.91 1.625-1.91 2.889 0 .954.593 2.012 1.6 2.244.283.077.542.053.8.053 2.503 0 5.314-2.814 8.358-7.096-.49.026-2.58.258-3.096.851-.232.181-.388.078-.44-.128 0-.052.08-.231.157-.334.825-.93 3.301-1.136 3.894-1.213 2.257-3.46 5.128-5.635 5.858-5.733-.024-.005-.056-.016-.078-.021-1.987-.465-3.792-.852-5.211-.852-4.98 0-7.2 2.141-7.096 4.102.052.8.698 1.317 1.652 1.136 1.032-.18 2.477-1.162 2.838-2.013.078-.18.284-.206.362-.154.154.129.103.31.103.31-.129 1.006-1.678 3.791-4.361 3.791-1.497 0-2.503-1.392-2.477-2.76.026-2.554 2.633-5.134 9.057-5.134zm5.21 1.595c.067.016.15.042.221.06-.05-.04-.105-.081-.144-.081-.018 0-.055.018-.076.021zm.438 3.54c-.387.077-.62.257-.722.644-.13.413-.078.696 0 1.006 0 0 .26.026.646-.412.155-.155.413-.62.361-.93-.026-.155-.105-.334-.285-.309zm23.656.179h2.04l-5.522 9.78c-.103.206-.36.592-.334.902.052.49.67.361.438.361 1.109-.052 3.148-2.168 3.638-2.684.103-.129.284-.36.387-.36.103 0 .309.102.309.257 0 .103-.232.49-.413.723-1.031 1.29-2.735 3.276-4.67 3.328-.954 0-1.314-.387-1.443-1.135-.439.387-1.937 1.057-3.459 1.057-1.264-.026-1.779-.774-2.037-1.368-.232-.49-.335-1.21-.154-1.933-.697.36-1.343.412-2.272.386-1.083-.025-1.752-.517-2.088-1.78-1.238 2.27-1.29 2.348-2.554 4.722h-2.194l2.813-4.774c.36-.645.541-1.161.67-1.703.077-.31-.155-.593-.49-.619-.362 0-.954.363-1.522.904 0 0-1.444 1.548-2.502 3.122-1.006 1.496-2.736 3.199-4.619 3.199-1.368 0-2.605-.749-2.863-2.194 0 0-.13.335-1.342 1.032-.103.051-.36.207-.438.156-.232-.206-.36-.466-.386-.647.077.026.232-.103.722-.49.955-.722 1.16-1.289 1.16-1.289.233-.49.647-1.265.93-1.806.774-1.548 2.114-3.122 4.307-3.2.361 0 .465.157.543.285.206.155.129.463.129.463-1.548.233-2.607 1.137-3.252 2.014-.387.568-.8 1.495-.877 2.166-.155 1.16.387 1.935 1.187 2.115 1.496.232 2.735-.85 3.715-2.527.258-.439.44-1.574.44-2.193 0-.62-.337-1.264-.594-1.522 0-.439.284-.723.619-.723.103 0 .205 0 .309.104.515.516.8 1.496.8 2.244a3.9 3.9 0 0 1-.052.773c1.083-1.315 2.451-3.018 3.51-3.353.206-.103.412-.104.619-.104 1.934-.051 1.675 1.704 1.675 1.704 1.032-1.187 1.755-1.626 2.71-1.575 1.031.052 1.392.775 1.392 1.342-.026.671-.516 1.445-1.367 1.47-.749 0-1.186-.36-1.418-1.03-.49.18-.723.515-.826 1.185-.155.852.49 1.524 1.316 1.524 1.419 0 2.039-.62 2.555-1.084 1.754-1.651 2.733-3.38 5.261-3.354 1.522.026 1.91 1.238 2.168 1.754l3.326-5.625zm-5.738 5.084c-.835.094-1.806.811-2.619 1.805-.464.567-.954 1.652-1.031 2.297-.104.644.076 1.29.308 1.47.233.18 1.264.721 2.864-.904.902-.903 1.78-2.373 1.78-2.373l-.284-.078c.542-1.006.439-2.088-.67-2.217a1.53 1.53 0 0 0-.348 0z" fill="#333"/></svg>
