<svg xmlns="http://www.w3.org/2000/svg" width="100" height="100"><path d="M85 50.04c0 9.682-15.714 17.619-35 17.619-19.365 0-35-7.937-35-17.62 0-9.76 15.635-17.698 35-17.698 19.286 0 35 7.937 35 17.699zm-36.667-2.46c3.016-.556 5.953-1.588 8.254-2.461 7.46-2.62 10.952-5.317 11.667-5.953.952-.873.238-1.19-.635-1.507-5.08-1.508-12.778-2.62-17.699-2.381-3.57.079-5.555 3.968-6.349 5.635-3.73 7.857 2.937 7.063 4.762 6.667zM25.476 58.69c.159-.317 6.032-14.047 12.937-21.507.872-.794-.08-.953-1.19-.715-11.431 2.223-19.367 7.46-19.367 13.493 0 3.334 2.381 6.429 6.35 8.89.555.317 1.11.079 1.27-.16zm26.111-6.27c-3.016.556-5.952 1.588-8.254 2.46-7.46 2.62-10.952 5.398-11.666 6.033-.953.793-.239 1.19.634 1.428 5.08 1.508 12.778 2.62 17.699 2.46 3.571-.158 5.556-4.047 6.428-5.714 3.651-7.857-3.015-6.984-4.84-6.666zm30.477-2.38c0-3.334-2.302-6.35-6.35-8.81-.555-.397-1.032-.158-1.27.159-.159.238-6.032 13.968-12.936 21.428-.794.873.079 1.032 1.19.794 11.429-2.301 19.366-7.54 19.366-13.571z" fill="#333"/></svg>
