<svg xmlns="http://www.w3.org/2000/svg" width="100" height="100"><path d="M49.401 35.989H50c19.305 0 35 6.285 35 14.011 0 7.726-15.695 14.011-35 14.011S15 57.726 15 50c0-7.22 13.675-13.188 31.558-13.918l-4.957 18.24c-1.306 4.802 17.154-10.514 7.8-18.333zM39.843 54.32l4.49-16.48C30.433 38.889 19.77 43.958 19.77 50.019 19.77 56.697 32.81 62.42 50 62.42c17.34 0 30.211-5.892 30.211-12.402 0-4.303-5.724-8.755-16.218-11-3.667 14.816-26.454 23.757-24.15 15.302zm17.472 2.694c-1.59-.954 1.946-.655 2.881-.655v-1.59c-2.619 0-11.15-.617-7.314 1.908 3.067 2.02-1.908 2.563-2.881 2.563-3.816 0-8.044-.038-11.317-.636l-.356 1.235c3.592.636 7.501.972 11.673.972 2.188 0 4.321-.093 6.36-.262 0 0 5.594-.748.954-3.535z" fill="#333"/></svg>
