<svg xmlns="http://www.w3.org/2000/svg" width="100" height="100"><path d="M50 20c-16.568 0-30 13.432-30 30 0 16.568 13.432 30 30 30 16.568 0 30-13.432 30-30 0-16.568-13.432-30-30-30zm-.33 1.701l-3.88 25.711-20.5 16.568a28.282 28.282 0 0 1 .155-28.082A28.401 28.401 0 0 1 49.67 21.701zm.728.002a28.386 28.386 0 0 1 24.123 14.145 28.296 28.296 0 0 1 .313 27.95L54.098 47.753l-3.7-26.049zm-.39 32.828l24.46 9.926a28.348 28.348 0 0 1-24.357 13.988 28.289 28.289 0 0 1-24.459-13.832l24.356-10.082z" fill="#333"/></svg>
