<?xml version="1.0" encoding="iso-8859-1"?>
<!-- Generator: Adobe Illustrator 19.1.0, SVG Export Plug-In . SVG Version: 6.00 Build 0)  -->
<svg version="1.1" id="Capa_1" xmlns="http://www.w3.org/2000/svg" x="0px"
     y="0px"
     viewBox="0 0 356.249 356.249" style="enable-background:new 0 0 356.249 356.249;" xml:space="preserve">
<g>
	<g>
		<g>
			<path style="fill:#fff;" d="M278.838,214.325H74.43c-6.264,0-11.399-5.135-11.399-11.399l0,0
				c0-6.264,5.135-11.399,11.399-11.399h204.39c6.264,0,11.399,5.135,11.399,11.399l0,0
				C290.219,209.19,285.102,214.325,278.838,214.325z"/>
            <path style="fill:#fff;" d="M278.838,163.399H74.43c-6.264,0-11.399-5.135-11.399-11.399l0,0
				c0-6.264,5.135-11.399,11.399-11.399h204.39c6.264,0,11.399,5.135,11.399,11.399l0,0
				C290.219,158.264,285.102,163.399,278.838,163.399z"/>
            <path style="fill:#fff;" d="M278.838,107.498H74.43c-6.264,0-11.399-5.135-11.399-11.399l0,0
				c0-6.264,5.135-11.399,11.399-11.399h204.39c6.264,0,11.399,5.135,11.399,11.399l0,0
				C290.219,102.363,285.102,107.498,278.838,107.498z"/>
		</g>
        <path style="fill:#fff;" d="M80.165,356.249c-10.676,0-19.34-8.646-19.34-19.287v-46.055
			c-35.344-9.899-60.278-42.173-60.278-79.335V82.529C0.547,37.021,37.55,0,83.058,0h190.133c45.508,0,82.511,37.021,82.511,82.529
			v129.043c0,45.508-37.021,82.529-82.511,82.529H155.476l-62.378,57.084C89.534,354.467,84.929,356.249,80.165,356.249z
			 M83.058,17.646c-35.768,0-64.866,29.098-64.866,64.883v129.043c0,31.162,22.322,57.931,53.078,63.666l7.199,1.341v60.384
			c0,1.57,1.676,1.641,1.694,1.641c0.371,0,0.688-0.141,1.023-0.423l67.442-61.725h124.579c35.768,0,64.866-29.098,64.866-64.883
			V82.529c0-35.786-29.098-64.883-64.883-64.883H83.058z"/>
	</g>
    <g>
	</g>
    <g>
	</g>
    <g>
	</g>
    <g>
	</g>
    <g>
	</g>
    <g>
	</g>
    <g>
	</g>
    <g>
	</g>
    <g>
	</g>
    <g>
	</g>
    <g>
	</g>
    <g>
	</g>
    <g>
	</g>
    <g>
	</g>
    <g>
	</g>
</g>
    <g>
</g>
    <g>
</g>
    <g>
</g>
    <g>
</g>
    <g>
</g>
    <g>
</g>
    <g>
</g>
    <g>
</g>
    <g>
</g>
    <g>
</g>
    <g>
</g>
    <g>
</g>
    <g>
</g>
    <g>
</g>
    <g>
</g>
</svg>
