<svg xmlns="http://www.w3.org/2000/svg" width="100" height="100"><path d="M56.827 51.464c-2.658 5.714-9.841 18.973-11.332 21.51-.095.16-.173.289-.232.382-.221.338-.413.533-.574.526 0 0 2.656-4.862 4.73-10.066a238.656 238.656 0 0 1-6.267-12.377c-.345-.729-.51-1.09-.507-1.45v-.001c0-.356.172-.716.513-1.449 2.788-5.999 9.618-18.864 11.596-21.927.23-.357.354-.49.518-.49h.015s-2.757 5.16-4.724 10.066c2.333 4.3 4.348 8.291 6.276 12.385.341.727.508 1.077.508 1.432 0 .357-.179.724-.52 1.459zm12.82-2.81c-.727-1.515-2.987-5.962-4.902-9.434-2.625-4.76-7.313-12.596-7.846-13.31-.526-.706-.82-.738-1.307-.79l-.071-.007C54.81 25.036 51.807 25 50 25c-1.55 0-4.838.04-5.604.117-.721.071-.917.292-1.328.83-.566.738-5.332 8.796-7.814 13.273-1.796 3.236-4.638 8.831-4.903 9.434-.238.543-.35.971-.35 1.346 0 .399.112.826.351 1.345.596 1.293 2.393 4.871 4.902 9.434 2.616 4.76 7.343 12.626 7.845 13.31.53.724.876.754 1.355.797.727.065 3.866.114 5.545.114 1.813 0 5.093-.072 5.545-.114.448-.04.835-.075 1.354-.797.477-.66 5.562-9.135 7.846-13.31 2.19-4 4.62-8.806 4.901-9.434.309-.69.351-1.054.351-1.346 0-.23-.045-.71-.35-1.345" fill="#333"/></svg>
