<?xml version="1.0" encoding="utf-8"?>
<!-- Svg Vector Icons : http://www.onlinewebfonts.com/icon -->
<!DOCTYPE svg PUBLIC "-//W3C//DTD SVG 1.1//EN" "http://www.w3.org/Graphics/SVG/1.1/DTD/svg11.dtd">
<svg version="1.1" xmlns="http://www.w3.org/2000/svg" x="0px" y="0px"
     viewBox="0 0 1000 1000" enable-background="new 0 0 1000 1000" xml:space="preserve">
<metadata> Svg Vector Icons : http://www.onlinewebfonts.com/icon </metadata>
    <g><g transform="translate(0.000000,512.000000) scale(0.100000,-0.100000)">
    <path fill="#fff"
          d="M4570.1,4976.9c-206.6-67-369.2-221.9-457.2-434.2c-30.6-74.6-38.3-151.1-45.9-434.2c-11.5-478.2,21-438.1-495.5-648.5c-170.2-68.9-327.1-126.3-350.1-126.3c-89.9,0-193.2,70.8-401.7,275.5c-239.1,235.3-311.8,283.1-491.6,317.5c-154.9,30.6-296.5,11.5-445.7-59.3c-170.2-80.3-549-457.2-629.4-627.4c-95.6-204.7-95.6-447.6,1.9-642.8c21-42.1,135.8-176,256.3-296.5c206.6-210.4,275.5-311.8,275.5-401.7c0-23-57.4-179.8-126.3-350.1c-210.4-516.5-170.3-484-648.5-495.5c-283.1-7.6-359.6-15.3-434.2-45.9c-216.2-88-369.2-252.5-436.1-464.8c-55.5-176-55.5-669.5,0-849.3c65-208.5,221.9-373,440-462.9c68.9-28.7,153-36.4,430.4-44c478.2-11.5,438.1,21,648.5-495.5c68.9-170.3,126.3-327.1,126.3-350.1c0-89.9-68.9-191.3-275.5-401.7c-120.5-120.5-235.3-254.4-256.3-296.5c-55.5-110.9-88-294.6-72.7-417c24.9-191.3,105.2-321.4,352-568.1c241-241,338.6-304.2,528-344.3c133.9-26.8,258.3-15.3,409.4,42.1c89.9,34.4,149.2,80.4,338.6,265.9c220,214.3,321.4,285,411.3,285c38.3,0,593-218.1,709.7-279.3c28.7-13.4,70.8-55.5,91.8-89.9c36.3-59.3,40.2-93.7,40.2-361.6c0-202.8,9.6-329,28.7-407.5c61.2-235.3,250.6-436.2,482.1-506.9c164.5-49.7,667.6-55.5,830.2-7.7c214.2,63.1,363.5,195.1,464.8,409.4c57.4,122.4,59.3,130.1,65.1,468.7c9.6,478.2-17.2,441.9,514.6,658.1c160.7,63.1,308,116.7,330.9,116.7c89.9,0,191.3-70.8,411.3-285c248.7-242.9,334.8-294.6,550.9-319.4c122.4-15.3,309.9,28.7,434.2,101.4c111,65,476.3,430.4,541.4,541.4c72.7,124.3,116.7,311.8,101.4,434.2c-24.9,216.2-74.6,300.3-327.1,560.5c-241,248.7-292.7,330.9-271.6,438c11.5,51.7,220,573.9,265.9,667.6c13.4,24.9,49.7,63.1,82.3,86.1c51.6,38.3,88,42.1,411.3,51.7c344.3,11.5,357.7,11.5,478.2,68.9c214.3,101.4,346.3,250.6,409.4,464.8c47.8,162.6,42.1,665.7-7.7,830.2c-45.9,145.4-151.1,290.8-277.4,376.9c-153,105.2-218.1,120.5-593,128.2c-478.2,13.4-438.1-19.1-648.5,497.4c-68.8,170.3-126.3,327.1-126.3,350.1c0,89.9,70.8,191.3,285,411.3c185.5,189.4,231.5,248.7,265.9,338.6c80.4,218.1,72.7,417-30.6,617.9c-65,130.1-459.1,524.2-589.2,589.2c-147.3,74.6-319.5,101.4-468.7,72.7c-183.7-36.4-256.3-82.3-495.5-319.5c-210.4-206.6-311.8-275.5-401.7-275.5c-23,0-179.8,57.4-350.1,126.3c-516.5,210.4-484,170.2-495.4,648.5c-7.7,277.4-15.3,361.6-44,430.4c-89.9,218.1-254.4,374.9-462.9,440C5249.2,5034.3,4740.4,5032.4,4570.1,4976.9z M5279.8,4378.2c32.5-24.9,36.3-59.3,45.9-388.3l9.6-361.5l74.6-153c89.9-179.8,239.1-338.6,394.1-415.1c231.5-114.8,725-302.2,847.4-323.3c166.4-26.8,357.7,3.8,528,84.2c95.7,45.9,179.8,112.9,357.7,286.9c128.2,124.3,248.7,225.7,267.8,225.7c44,0,409.4-365.4,409.4-409.4c0-19.1-101.4-139.7-225.7-267.8c-170.3-172.2-241-264-286.9-355.8c-80.4-166.4-111-361.5-84.2-529.9c19.1-116.7,195.1-577.7,317.6-837.9c95.6-200.9,294.6-371.1,524.1-447.6c99.5-34.4,164.5-40.2,434.2-40.2c411.3,0,392.1,15.3,392.1-325.2c0-340.5,19.1-325.2-392.1-325.2c-269.7,0-334.8-5.7-436.2-40.2c-155-51.6-281.2-132-388.3-252.5c-107.1-120.5-114.8-133.9-288.9-558.6c-168.3-415.1-193.2-526.1-162.6-732.7c36.3-237.2,109-359.6,371.1-627.5c124.3-128.2,225.7-248.7,225.7-267.8c0-44-365.4-409.4-409.4-409.4c-19.1,0-139.6,101.4-267.8,225.7c-267.8,262.1-390.2,334.8-627.4,371.1c-112.9,17.2-177.9,17.2-269.7,0c-109-21.1-585.4-202.8-826.4-317.6c-200.9-95.7-371.1-294.6-447.6-524.1c-34.4-99.5-40.2-164.5-40.2-434.2c0-409.4,15.3-392.1-321.4-392.1c-181.7,0-254.4,7.7-283.1,26.8c-32.5,24.9-36.4,59.3-45.9,388.3l-9.6,361.5l-72.7,149.2c-89.9,177.9-246.8,344.3-396,418.9c-218.1,107.1-721.2,302.2-836,323.3c-93.7,17.2-154.9,17.2-269.7,0c-242.9-38.3-353.9-103.3-623.6-365.4c-130.1-128.2-252.5-231.5-271.6-231.5c-44,0-409.4,365.4-409.4,409.4c0,19.1,97.6,135.8,216.2,258.2c118.6,122.4,235.3,252.5,258.3,290.8c105.2,174.1,155,430.4,120.5,623.6c-26.8,139.6-302.3,814.9-382.6,929.7c-105.2,155-267.8,273.6-459.1,338.6c-97.6,32.5-164.5,38.3-432.3,38.3c-409.4,0-392.2-15.3-392.2,321.3c0,181.7,7.7,254.4,26.8,283.1c24.9,32.5,59.3,36.3,388.3,45.9c357.7,9.6,359.6,9.6,489.7,70.8c294.6,139.6,374.9,241,581.5,736.5c187.5,453.4,216.2,577.7,181.7,786.2c-38.3,227.7-114.8,355.8-371.1,617.9c-124.3,128.2-225.7,248.7-225.7,267.8c0,44,365.4,409.4,409.4,409.4c19.1,0,139.6-101.4,267.8-225.7c172.2-170.3,264-241,355.8-286.9c166.4-80.3,361.6-110.9,531.8-84.2c174.1,28.7,843.6,308,971.8,405.5c114.8,86.1,216.2,218.1,290.8,375c49.8,107.1,51.7,130.1,61.2,472.5c9.6,329,13.4,363.5,45.9,388.3C4774.8,4416.5,5226.2,4416.5,5279.8,4378.2z"/>
    <path fill="#fff"
          d="M4742.3,2404c-183.6-28.7-382.6-76.5-512.7-124.3C2641.8,1702,2192.3-306.6,3382.2-1498.4c265.9-264,564.3-449.5,906.7-560.5c260.2-84.2,411.3-107.1,711.6-107.1c300.3,0,451.5,23,711.6,107.1C6286-1873.3,6777.6-1448.7,7055-897.7c160.7,321.4,231.5,629.4,231.5,1017.7c0,300.3-23,451.5-107.1,711.6c-111,342.4-296.5,640.8-560.5,906.7c-325.2,325.2-705.9,531.8-1163.1,631.3C5320,2398.3,4859,2421.2,4742.3,2404z M5297,1774.7c642.8-112.9,1159.2-593,1335.2-1243.4c59.3-218.1,59.3-604.5,0-822.5C6465.8-901.6,6022-1345.4,5411.8-1511.8c-120.5-32.5-206.6-40.2-411.3-40.2c-204.7,0-290.8,7.7-411.3,40.2c-880,239.1-1417.5,1092.3-1235.8,1966.5C3539,1351.9,4394.1,1931.5,5297,1774.7z"/></g></g>
</svg>