<svg xmlns="http://www.w3.org/2000/svg" width="100" height="100"><path d="M50 27.7c-19.33 0-35 9.984-35 22.3s15.67 22.3 35 22.3S85 62.316 85 50 69.33 27.7 50 27.7zM24.067 41.174c.963 4.03 7.969 7.375 17.45 8.647l-.003.57c0 9.555 2.75 17.571 6.457 19.75-15.38-.735-27.513-9.22-27.513-19.578 0-3.4 1.308-6.6 3.609-9.389zm20.93 9.01c1.62.123 3.292.187 5.003.187 1.711 0 3.384-.064 5.003-.187-.23 7.088-2.382 12.642-5.003 12.642s-4.773-5.554-5.003-12.642zm13.485-.363c9.697-1.301 16.804-4.77 17.507-8.921 2.445 2.852 3.84 6.15 3.84 9.663 0 10.428-12.296 18.957-27.824 19.593 3.719-2.16 6.48-10.19 6.48-19.765 0-.19 0-.38-.003-.57zm-5.45-18.43c9.694.494 17.125 3.316 17.125 6.723 0 2.783-4.956 5.175-12.053 6.227-.773-5.954-2.657-10.735-5.071-12.95zM54.79 44.72a58.575 58.575 0 0 1-4.789.193 58.57 58.57 0 0 1-4.789-.193c.644-5.62 2.545-9.691 4.789-9.691 2.244 0 4.144 4.072 4.789 9.691zm-12.893-.379c-7.097-1.052-12.053-3.444-12.053-6.227 0-1.15.846-2.233 2.34-3.182a35.217 35.217 0 0 1 5.684-2.247c2.611-.665 5.718-1.121 9.1-1.293-2.414 2.214-4.298 6.995-5.07 12.95z" fill="#333"/></svg>
