<svg xmlns="http://www.w3.org/2000/svg" width="100" height="100"><path d="M50 76.464c-14.464 0-26.357-12-26.357-26.464 0-3 .536-5.893 1.5-8.679l15.428 30c.215.429.429.75.965.75.535 0 .75-.321.964-.75l7.179-15.964c.107-.214.214-.321.321-.321.214 0 .214.214.321.321l7.286 15.964c.214.429.429.75.964.75.536 0 .75-.321.965-.75l15.428-30a25.45 25.45 0 0 1 1.5 8.679c-.107 14.464-12 26.464-26.464 26.464zm0-33.321c-.214 0-.214-.214-.321-.322l-8.25-17.785a25.292 25.292 0 0 1 8.571-1.5c3 0 5.893.535 8.571 1.5l-8.25 17.785c-.107.108-.107.322-.321.322zm-8.679 19.286c-.214 0-.214-.215-.321-.322L27.5 36.18c2.357-3.858 5.786-7.072 9.75-9.322l9.536 20.572c.214.428.428.535.75.535h4.928c.322 0 .536-.107.75-.535l9.429-20.572c3.964 2.25 7.393 5.464 9.75 9.322L59 62.107c-.107.214-.214.322-.321.322-.215 0-.215-.215-.322-.322L53.214 50.75c-.214-.429-.428-.536-.75-.536h-4.928c-.322 0-.536.107-.75.536l-5.143 11.357c-.107.107-.107.322-.322.322zM50 80c16.607 0 30-13.393 30-30S66.607 20 50 20 20 33.393 20 50s13.393 30 30 30z" fill="#333"/></svg>
